<?xml version="1.0" encoding="UTF-8"?>
<!DOCTYPE svg PUBLIC "-//W3C//DTD SVG 1.1//EN" "http://www.w3.org/Graphics/SVG/1.1/DTD/svg11.dtd">
<!-- Creator: CorelDRAW 2019 (64-Bit) -->
<svg xmlns="http://www.w3.org/2000/svg" xml:space="preserve" width="5.508in" height="1.89in" version="1.1" style="shape-rendering:geometricPrecision; text-rendering:geometricPrecision; image-rendering:optimizeQuality; fill-rule:evenodd; clip-rule:evenodd"
viewBox="0 0 5508 1890"
 xmlns:xlink="http://www.w3.org/1999/xlink"
 xmlns:xodm="http://www.corel.com/coreldraw/odm/2003">
 <defs>
  <style type="text/css">
   <![CDATA[
    .str0 {stroke:#76C266;stroke-width:13.89;stroke-miterlimit:2.61313}
    .fil6 {fill:none;fill-rule:nonzero}
    .fil5 {fill:black;fill-rule:nonzero}
    .fil7 {fill:#373435;fill-rule:nonzero}
    .fil1 {fill:#76C266;fill-rule:nonzero}
    .fil3 {fill:#7B3E41;fill-rule:nonzero}
    .fil2 {fill:#AD4346;fill-rule:nonzero}
    .fil4 {fill:#FEFEFE;fill-rule:nonzero}
    .fil0 {fill:white;fill-rule:nonzero}
   ]]>
  </style>
 </defs>
 <g id="Layer_x0020_1">
  <metadata id="CorelCorpID_0Corel-Layer"/>
  <path class="fil0" d="M830.53 296.28l-437.56 181.4 -34.78 44.05 -9.85 48.1 1.74 933.66 5.79 53.31c0,0 23.19,45.21 82.3,62.59 59.11,17.39 572.59,236.45 572.59,236.45 0,0 63.76,37.09 128.66,-3.48l583.03 -246.89c0,0 56.8,-5.22 62.01,-89.83 5.22,-84.62 1.17,-961.48 1.17,-961.48 0,0 -10.44,-77.67 -78.83,-85.78l-549.41 -236.45 -326.85 64.33 -0.02 0.01z"/>
  <path class="fil1" d="M988.34 221.39l24.12 -10.15c14.68,-6.17 33.59,-9.37 51.6,-10.03 19.76,-0.72 38.85,1.64 50.5,6.55l2.37 0.98c4.67,7.95 9.12,16.06 13.31,24.31l-22.35 -9.41c-9.5,-3.96 -25.85,-5.85 -43.23,-5.23 -16.17,0.58 -32.9,3.36 -45.54,8.69l-32.08 13.48c0.64,-6.37 1.07,-12.76 1.28,-19.2l0.01 0.02zm-117.26 49.31l102.42 -43.06c-1.18,6.84 -2.59,13.63 -4.19,20.43l-109.11 45.87c2.37,-5.14 4.78,-10.25 7.17,-15.37l3.68 -7.86 0.01 0 0.01 -0.01zm922.74 1242.62c0,19.75 -6.29,40.33 -16.43,57.56 -10.3,17.51 -24.69,31.71 -40.68,38.45l-613.92 258.15c-15.32,6.46 -35.32,9.69 -55.16,9.69 -19.81,0 -39.79,-3.23 -55.16,-9.69l-613.93 -258.15c-15.99,-6.73 -30.39,-20.95 -40.66,-38.45 -10.13,-17.23 -16.43,-37.81 -16.43,-57.56l0 -947.93c0,-19.75 6.3,-40.33 16.43,-57.55 10.29,-17.5 24.67,-31.71 40.66,-38.44l445.03 -187.13c-3.52,7.54 -7.07,15.25 -10.61,23.13l-427.74 179.85c-12.5,5.26 -24.02,16.83 -32.49,31.28 -8.65,14.69 -14,32.17 -14,48.85l0 947.93c0,16.7 5.37,34.19 14,48.87 8.48,14.44 20,26.02 32.49,31.28l613.92 258.15c13.11,5.51 30.71,8.27 48.47,8.27 17.72,0 35.3,-2.78 48.48,-8.31l613.92 -258.11c12.49,-5.26 24.02,-16.85 32.51,-31.28 8.65,-14.68 14.01,-32.16 14.01,-48.87l0 -947.93c0,-17.05 -5.63,-34.92 -15.68,-50.2 -9.5,-14.48 -22.88,-26.58 -39.08,-33.39l-563.8 -237.08c-3.57,-7.93 -7.37,-15.76 -11.35,-23.47l581.84 244.69c19.56,8.22 35.57,22.63 46.83,39.79 11.85,18.07 18.51,39.3 18.51,59.67l0 947.93 0.02 0z"/>
  <path class="fil1" d="M978.69 288.5l39.61 -16.79c13.07,-5.52 30,-8.41 46.17,-8.99 17.66,-0.66 34.7,1.44 45.02,5.82l44.13 18.7c1.2,3.39 2.41,6.81 3.54,10.25l1.38 4.24 -53.27 -22.59c-8.93,-3.76 -24.21,-5.56 -40.42,-4.95 -14.97,0.55 -30.54,3.14 -42.34,8.14l-47.44 20.11c1.28,-4.65 2.48,-9.3 3.6,-13.94l0 -0.02 0.03 0.02zm-142.55 60.41l117.66 -49.85c-1.72,4.88 -3.46,9.76 -5.22,14.61l-118.19 50.09c1.84,-4.97 3.77,-9.92 5.74,-14.86l0.01 0.01zm891.06 1116.76c0,17.79 -5.62,36.33 -14.68,51.86 -9.16,15.65 -21.91,28.37 -36.03,34.35l-559.52 237.1c-13.69,5.78 -31.59,8.68 -49.36,8.68 -17.76,0 -35.64,-2.9 -49.34,-8.68l-559.54 -237.1c-14.12,-5.99 -26.87,-18.71 -36.01,-34.37 -9.04,-15.53 -14.67,-34.06 -14.67,-51.83l0 -870.62c0,-17.79 5.62,-36.32 14.67,-51.82 9.15,-15.67 21.88,-28.39 36.01,-34.37l351.8 -149.07c-1.76,4.8 -3.48,9.68 -5.11,14.57l-342.44 145.12c-11.85,5.01 -22.72,16 -30.68,29.65 -8.06,13.8 -13.06,30.24 -13.06,45.93l0 870.62c0,15.69 4.99,32.11 13.06,45.93 7.96,13.65 18.85,24.65 30.68,29.65l559.53 237.1c12.26,5.19 28.64,7.79 45.09,7.79 16.48,0 32.86,-2.6 45.13,-7.79l559.53 -237.1c11.85,-5.01 22.72,-16 30.69,-29.67 8.06,-13.8 13.07,-30.24 13.07,-45.91l0 -870.62c0,-16.07 -5.26,-32.89 -14.6,-47.27 -8.88,-13.64 -21.43,-25.05 -36.65,-31.5l-482.42 -204.44c-1.29,-4.72 -2.67,-9.43 -4.13,-14.16l490.78 207.98c17.36,7.35 31.6,20.29 41.66,35.72 10.59,16.28 16.52,35.38 16.52,53.66l0 870.62 0.02 0.01z"/>
  <path class="fil1" d="M1049.83 900.09l-6.45 -10.21c-4.8,-7.56 -9.81,-15.5 -14.78,-23.43 -26.69,-42.82 -60.13,-100.08 -82.16,-163.29 -17.74,-50.95 -28.37,-98.68 -32.44,-145.85 -3.7,-42.69 0.44,-85.66 12.25,-127.71 7.02,-24.96 14.84,-50.06 22.38,-74.34 4.33,-13.97 8.67,-27.91 12.89,-41.9 2.96,-9.78 5.51,-19.17 7.67,-28.23 -0.72,2.15 -1.44,4.28 -2.19,6.44 -8.39,24.22 -17.42,48.64 -26.15,72.23 -6.39,17.3 -12.8,34.62 -19,51.98 -12.6,35.25 -20.59,70.65 -23.79,105.22 -2.35,25.63 -1.08,53.53 3.92,85.22 7.02,44.57 20.37,89.2 40.82,136.52 0.33,0.79 1.22,3.07 1.22,3.07l-2.89 11.31 -1.37 1.14 -13.58 -0.68c-3.24,-3.32 -6.52,-6.59 -9.78,-9.85 -7.24,-7.2 -14.71,-14.67 -21.64,-22.59 -47.66,-54.42 -79.39,-116.24 -94.31,-183.74 -9.24,-41.83 -7.18,-86.63 6.3,-136.92 12.54,-46.79 33.28,-91.09 51.56,-130.17l3.67 -7.78c15.71,-33.51 31.95,-68.14 42.5,-104.06 7.81,-26.61 10.78,-51.2 9.12,-75.19 -1.15,-16.66 -5.36,-33.41 -12.48,-49.79 -0.58,-1.33 -3.28,-7.83 -3.28,-7.83l11.83 -13.52 3.01 0.8c2.2,0.57 4.04,1.06 5.85,1.63 36.41,11.69 70.8,32.15 105.1,62.54 67.88,60.1 116,131.85 143.02,213.22 31.24,94.13 21.46,185.6 -29.11,271.9 -9.37,15.97 -19.63,31.62 -29.57,46.75 -7.87,11.96 -15.99,24.34 -23.54,36.69 -12.47,20.43 -25.28,41.37 -35.04,62.94 -18.41,40.62 -16.22,83.15 6.47,126.39 2.05,3.89 4.21,7.75 6.49,11.65 2.38,-10.63 4.72,-20.85 7.51,-31.07 2.62,-9.55 5.5,-18.77 8.69,-27.67l-9.22 5.94 -1.61 -0.09 -9.44 -9.99c0,-3.37 -0.07,-6.74 -0.14,-10.13 -0.15,-7.71 -0.3,-15.68 0.3,-23.7 1.56,-20.97 6.76,-42.56 15.93,-65.99 13.35,-34.09 35.13,-59.69 64.75,-76.09 16.24,-9.01 33.31,-16.74 49.81,-24.19 7.53,-3.41 15.07,-6.83 22.56,-10.37 4.85,-2.3 9.76,-4.54 14.66,-6.76 11.07,-5.04 22.54,-10.28 33.11,-16.17 20.82,-11.64 34.19,-27.75 40.83,-49.23l18.43 -1.66c0.93,1.79 1.83,3.46 2.69,5.03 1.83,3.35 3.54,6.51 5.02,9.91 8.69,20.15 13.3,42.7 14.1,68.93 1.14,37.56 -4.91,73.09 -17.98,105.61 -22.3,55.41 -63.91,91.38 -123.68,106.9 -5.69,1.48 -11.39,2.89 -17.11,4.31 -14.75,3.67 -30.02,7.45 -44.49,12.22 -31.82,10.45 -47.02,30.33 -52.22,68.44 0.2,0.42 0.45,0.83 0.69,1.28 0.72,1.29 1.4,2.6 1.93,3.86l-8.75 13.8 -19.95 0.98 -8.97 -4.65 0.02 0 0.01 -0.02z"/>
  <path class="fil2" d="M1962.43 1286.44l133.01 0 -82.26 -248.27 82.26 -248.26 -301.6 0 0 90.06 153.99 0c4,0 7.65,1.64 10.3,4.28l0.02 0.02c2.65,2.65 4.28,6.29 4.28,10.3l0 391.87 -0 0zm-168.59 0l157.68 0 0 -391.87c0,-1.02 -0.41,-1.97 -1.06,-2.61l-0.01 -0.01c-0.65,-0.66 -1.59,-1.06 -2.62,-1.06l-153.99 0 0 395.55 0 0z"/>
  <path class="fil2" d="M172.85 1286.44l-132.99 0 82.24 -248.27 -82.24 -248.26 301.6 0 0 90.06 -154 0c-4,0 -7.66,1.64 -10.3,4.28l-0.03 0.02c-2.65,2.65 -4.28,6.29 -4.28,10.3l0 391.87 0 0zm168.61 0l-157.69 0 0 -391.87c0,-1.02 0.41,-1.97 1.06,-2.61l0.02 -0.01c0.65,-0.66 1.59,-1.06 2.61,-1.06l154 0 0 395.55 0.01 0 -0.01 0z"/>
  <path class="fil3" d="M341.45 890.89l0 221.39 -157.7 -217.19 0 -0.51c0,-1.02 0.41,-1.96 1.06,-2.61l0.03 -0.01c0.65,-0.65 1.57,-1.05 2.6,-1.05l154.01 0 -0 -0.01zm-150.44 -10.92l150.44 -90.06 0 90.06 -150.44 0z"/>
  <path class="fil3" d="M1793.83 890.89l0 221.39 157.69 -217.17 0 -0.53c0,-1.02 -0.41,-1.95 -1.06,-2.6l-0.02 -0.03c-0.65,-0.65 -1.59,-1.04 -2.62,-1.04l-153.99 0 0 -0.01 0 0zm150.43 -10.92l-150.43 -90.05 0 90.05 150.43 0z"/>
  <path class="fil2" d="M184.85 1341.39c0.65,0.65 1.59,1.06 2.6,1.06l1760.37 0c1.04,0 1.97,-0.42 2.62,-1.06 0.66,-0.69 1.08,-1.62 1.08,-2.63l0 -444.19c0,-1.04 -0.41,-1.97 -1.05,-2.62l-0.03 -0.01c-0.65,-0.67 -1.57,-1.05 -2.6,-1.05l-1760.37 0c-1.04,0 -1.97,0.4 -2.61,1.05l-0.03 0.01c-0.65,0.65 -1.06,1.59 -1.06,2.62l0 444.19c0,1.04 0.41,1.97 1.06,2.62l0.03 0.02 -0.01 0 0 -0.01z"/>
  <path class="fil4" d="M1524.6 953.82l126.78 0c33.02,0 60.74,1.96 83.07,5.87 22.32,3.93 40.48,9.9 54.56,18.06 26.33,15.77 46.15,35.78 59.62,59.95 13.38,24.17 20.06,52.19 20.06,84.13 0,35.12 -7.03,64.93 -21.02,89.51 -13.98,24.58 -35.28,44.76 -63.96,60.53 -14.24,7.68 -32.48,13.32 -54.74,16.83 -22.23,3.52 -52.04,5.23 -89.59,5.23l-114.78 0 0 -340.11 0.01 0 -0 0zm96.97 65.67l0 206.31 41.72 0c33.96,0 60.12,-8.98 78.62,-27.03 18.51,-18.06 27.72,-43.61 27.72,-76.85 0,-32.84 -9.65,-58.16 -28.85,-75.87 -19.29,-17.72 -46.85,-26.55 -82.56,-26.55l-36.68 0 0.02 0 0.01 -0zm-611.44 -65.67l147.09 0 66.13 204.34c2.61,8.17 4.61,17.33 6.24,27.46 1.66,10.12 2.87,20.98 3.65,32.66 1.22,-12.59 2.78,-24.18 4.61,-34.81 1.91,-10.61 4,-19.67 6.34,-27.19l66.22 -202.46 144.93 0 0 340.09 -90.71 0 0 -228.37c0,-10.77 0.33,-22.06 1.02,-33.71 0.71,-11.61 1.65,-24.11 3.05,-37.34 -2.35,10.21 -4.87,20.02 -7.39,29.33 -2.52,9.31 -5.3,18.13 -8.17,26.46l-81.42 243.63 -86.55 0 -79.67 -239.54c-2.7,-8.33 -5.4,-17.57 -7.92,-27.7 -2.52,-10.13 -4.85,-20.82 -7.11,-32.19 1.2,16.09 2.17,30.63 2.95,43.46 0.77,12.82 1.13,22.54 1.13,29.08l0 226.89 -84.45 0 0 -340.09 0 -0.01 0.02 0.01zm-274.66 0l116.35 0 136.94 340.11 -103.14 0 -25.73 -72.04 -139.18 0 -27.02 72.04 -95.4 0 137.2 -340.11 -0.01 0 -0.01 0zm56.22 75.87l-46.84 127.5 92.19 0 -45.35 -127.5zm-525.09 -75.87l96.44 0 0 129.87 112.62 0 0 -129.87 96.44 0 0 340.11 -96.44 0 0 -142.13 -112.62 0 0 142.13 -96.44 0 0 -340.11z"/>
  <path class="fil5" d="M1448.64 1509.14c18.48,0 32.76,-10.32 32.76,-25.36 0,-18.98 -22.95,-24.72 -31.49,-26.38 -8.79,-1.78 -21.02,-5.48 -21.02,-15.17 0,-8.04 8.15,-13.63 19.24,-13.63 9.83,0 18.85,4.2 23.45,9.3l5.6 -8.67c-6.11,-6.63 -16.57,-11.1 -28.92,-11.1 -18.35,0 -31.35,9.83 -31.35,24.47 0,15.56 14.92,22.69 29.7,25.87 8.41,1.91 22.81,4.97 22.81,15.8 0,8.54 -9.19,14.39 -20.79,14.39 -11.09,0 -21.66,-5.23 -28.28,-12.23l-6.24 8.79c8.15,8.55 21.41,13.89 34.53,13.89l-0 0.02zm-188.22 -12.48l-22.06 0 0 -66.02 22.06 0c18.6,0 32.75,14.15 32.75,33.02 0,18.85 -14.14,33.02 -32.75,33.02l0 -0.01zm0.13 -76.98l-33.9 0 0 87.93 33.9 0c25.49,0 44.61,-18.85 44.61,-43.96 0,-25.11 -19.11,-43.96 -44.61,-43.96l0 -0.01zm-194.98 78.25c-19.38,0 -34.03,-14.78 -34.03,-34.28 0,-19.49 14.66,-34.3 34.03,-34.3 19.38,0 34.02,14.78 34.02,34.3 0,19.5 -14.64,34.28 -34.02,34.28zm0 11.21c26.24,0 46.01,-19.62 46.01,-45.49 0,-25.87 -19.75,-45.51 -46.01,-45.51 -26.26,0 -46,19.63 -46,45.51 0,25.87 19.75,45.49 46,45.49zm-202.39 -11.21c-19.37,0 -34.02,-14.78 -34.02,-34.28 0,-19.49 14.65,-34.3 34.02,-34.3 19.37,0 34.03,14.78 34.03,34.3 0,19.5 -14.66,34.28 -34.03,34.28zm0 11.21c26.25,0 46,-19.62 46,-45.49 0,-25.87 -19.73,-45.51 -46,-45.51 -26.24,0 -46.01,19.63 -46.01,45.51 0,25.87 19.75,45.49 46.01,45.49zm-154.08 -78.5l0 -10.96 -55.68 0 0 87.93 11.72 0 0 -37.98 38.74 0 0 -10.96 -38.74 0 0 -28.04 43.96 0z"/>
  <line class="fil6 str0" x1="496.9" y1="1463.63" x2="614.59" y2= "1463.63" />
  <line class="fil6 str0" x1="1520.7" y1="1463.63" x2="1638.38" y2= "1463.63" />
  <path class="fil7" d="M2619.44 915.39l0 296.76 -83.94 0 0 -115.74 -114.46 0 0 115.74 -83.94 0 0 -296.76 83.94 0 0 111.5 114.46 0 0 -111.5 83.94 0zm258.18 239.1l-125.49 0 -23.31 57.66 -85.64 0 131 -296.76 82.67 0 131.42 296.76 -87.33 0 -23.32 -57.66zm-24.59 -61.89l-38.16 -94.96 -38.15 94.96 76.31 0zm426.91 119.55l-0.85 -157.28 -76.31 128.03 -37.31 0 -75.89 -123.79 0 153.04 -77.58 0 0 -296.76 69.1 0 104.29 171.27 101.75 -171.27 69.1 0 0.85 296.76 -77.16 0zm136.51 -296.76l140.32 0c32.5,0 61.33,6.08 86.48,18.23 25.15,12.15 44.65,29.39 58.5,51.72 13.85,22.33 20.77,48.47 20.77,78.43 0,29.96 -6.92,56.1 -20.77,78.43 -13.85,22.33 -33.35,39.57 -58.5,51.72 -25.15,12.15 -53.98,18.23 -86.48,18.23l-140.32 0 0 -296.76zm136.93 229.78c25.43,0 45.85,-7.2 61.26,-21.62 15.4,-14.41 23.1,-34.34 23.1,-59.78 0,-25.44 -7.7,-45.36 -23.1,-59.78 -15.41,-14.42 -35.83,-21.62 -61.26,-21.62l-52.99 0 0 162.79 52.99 0zm420.55 -164.91l0 65.29 131 0 0 64.87 -131 0 0 101.74 -83.94 0 0 -296.76 232.74 0 0 64.86 -148.8 0zm335.33 237.83c-31.37,0 -59.56,-6.64 -84.57,-19.93 -25.01,-13.28 -44.66,-31.66 -58.93,-55.11 -14.27,-23.46 -21.41,-49.88 -21.41,-79.28 0,-29.39 7.14,-55.82 21.41,-79.28 14.27,-23.46 33.92,-41.83 58.93,-55.11 25.01,-13.28 53.2,-19.93 84.57,-19.93 31.37,0 59.56,6.64 84.57,19.93 25.02,13.28 44.66,31.65 58.93,55.11 14.27,23.46 21.41,49.89 21.41,79.28 0,29.39 -7.14,55.82 -21.41,79.28 -14.27,23.46 -33.91,41.83 -58.93,55.11 -25.01,13.28 -53.2,19.93 -84.57,19.93zm0 -69.53c14.98,0 28.55,-3.53 40.7,-10.6 12.15,-7.07 21.76,-17.03 28.83,-29.89 7.06,-12.86 10.6,-27.63 10.6,-44.3 0,-16.68 -3.54,-31.44 -10.6,-44.3 -7.07,-12.86 -16.68,-22.82 -28.83,-29.89 -12.15,-7.06 -25.72,-10.6 -40.7,-10.6 -14.98,0 -28.54,3.54 -40.7,10.6 -12.15,7.07 -21.76,17.03 -28.83,29.89 -7.06,12.86 -10.6,27.63 -10.6,44.3 0,16.67 3.54,31.44 10.6,44.3 7.07,12.86 16.68,22.82 28.83,29.89 12.15,7.07 25.72,10.6 40.7,10.6zm358.65 69.53c-31.37,0 -59.56,-6.64 -84.57,-19.93 -25.01,-13.28 -44.66,-31.66 -58.93,-55.11 -14.27,-23.46 -21.41,-49.88 -21.41,-79.28 0,-29.39 7.14,-55.82 21.41,-79.28 14.27,-23.46 33.92,-41.83 58.93,-55.11 25.01,-13.28 53.2,-19.93 84.57,-19.93 31.37,0 59.56,6.64 84.57,19.93 25.02,13.28 44.66,31.65 58.93,55.11 14.27,23.46 21.41,49.89 21.41,79.28 0,29.39 -7.14,55.82 -21.41,79.28 -14.27,23.46 -33.91,41.83 -58.93,55.11 -25.01,13.28 -53.2,19.93 -84.57,19.93zm0 -69.53c14.98,0 28.55,-3.53 40.7,-10.6 12.15,-7.07 21.76,-17.03 28.83,-29.89 7.06,-12.86 10.6,-27.63 10.6,-44.3 0,-16.68 -3.54,-31.44 -10.6,-44.3 -7.07,-12.86 -16.68,-22.82 -28.83,-29.89 -12.15,-7.06 -25.72,-10.6 -40.7,-10.6 -14.98,0 -28.54,3.54 -40.7,10.6 -12.15,7.07 -21.76,17.03 -28.83,29.89 -7.06,12.86 -10.6,27.63 -10.6,44.3 0,16.67 3.54,31.44 10.6,44.3 7.07,12.86 16.68,22.82 28.83,29.89 12.15,7.07 25.72,10.6 40.7,10.6zm209 -233.17l140.32 0c32.5,0 61.33,6.08 86.48,18.23 25.15,12.15 44.65,29.39 58.5,51.72 13.85,22.33 20.77,48.47 20.77,78.43 0,29.96 -6.92,56.1 -20.77,78.43 -13.85,22.33 -33.35,39.57 -58.5,51.72 -25.15,12.15 -53.98,18.23 -86.48,18.23l-140.32 0 0 -296.76zm136.93 229.78c25.43,0 45.85,-7.2 61.26,-21.62 15.4,-14.41 23.1,-34.34 23.1,-59.78 0,-25.44 -7.7,-45.36 -23.1,-59.78 -15.41,-14.42 -35.83,-21.62 -61.26,-21.62l-52.99 0 0 162.79 52.99 0zm317.53 72.92c-24.02,0 -47.34,-2.97 -69.95,-8.91 -22.61,-5.93 -40.98,-13.85 -55.11,-23.74l27.56 -61.89c13.28,8.76 28.69,15.83 46.21,21.2 17.52,5.37 34.76,8.06 51.72,8.06 32.22,0 48.33,-8.06 48.33,-24.17 0,-8.48 -4.59,-14.77 -13.78,-18.87 -9.19,-4.1 -23.95,-8.41 -44.3,-12.93 -22.33,-4.81 -40.98,-9.96 -55.96,-15.48 -14.98,-5.51 -27.84,-14.34 -38.58,-26.5 -10.74,-12.15 -16.11,-28.54 -16.11,-49.18 0,-18.09 4.95,-34.41 14.84,-48.96 9.89,-14.56 24.66,-26.07 44.3,-34.55 19.64,-8.48 43.74,-12.72 72.28,-12.72 19.5,0 38.72,2.19 57.65,6.57 18.94,4.38 35.61,10.81 50.03,19.29l-25.86 62.32c-28.26,-15.26 -55.68,-22.89 -82.24,-22.89 -16.68,0 -28.83,2.47 -36.46,7.42 -7.63,4.94 -11.44,11.37 -11.44,19.29 0,7.91 4.52,13.85 13.57,17.8 9.04,3.96 23.6,8.06 43.67,12.3 22.61,4.8 41.33,9.96 56.17,15.47 14.83,5.51 27.7,14.28 38.58,26.28 10.88,12.01 16.32,28.33 16.32,48.97 0,17.8 -4.94,33.91 -14.84,48.33 -9.89,14.41 -24.73,25.93 -44.51,34.55 -19.78,8.62 -43.81,12.93 -72.07,12.93z"/>
 </g>
</svg>
