<?xml version="1.0" encoding="UTF-8"?>
<!DOCTYPE svg PUBLIC "-//W3C//DTD SVG 1.1//EN" "http://www.w3.org/Graphics/SVG/1.1/DTD/svg11.dtd">
<!-- Creator: CorelDRAW 2019 (64-Bit) -->
<svg xmlns="http://www.w3.org/2000/svg" xml:space="preserve" width="5.24in" height="0.845in" version="1.1" style="shape-rendering:geometricPrecision; text-rendering:geometricPrecision; image-rendering:optimizeQuality; fill-rule:evenodd; clip-rule:evenodd"
viewBox="0 0 5240 845"
 xmlns:xlink="http://www.w3.org/1999/xlink"
 xmlns:xodm="http://www.corel.com/coreldraw/odm/2003">
 <defs>
  <style type="text/css">
   <![CDATA[
    .fil0 {fill:#FEFEFE}
    .fil1 {fill:#FFA823}
   ]]>
  </style>
 </defs>
 <g id="Layer_x0020_1">
  <metadata id="CorelCorpID_0Corel-Layer"/>
  <path class="fil0" d="M5044.08 495.04l0.03 -207.59c0,-3.99 3.24,-7.24 7.24,-7.24l105.54 0c3.43,0 6.22,-2.8 6.22,-6.22l0 -110.74c0,-3.42 -2.79,-6.22 -6.22,-6.22l-105.54 0c-4,0 -7.24,-3.24 -7.24,-7.23l0 -118.84c0,-3.42 -2.8,-6.22 -6.21,-6.22l-110.26 0c-3.41,0 -6.22,2.8 -6.22,6.22l0 497.58c0,53.08 43.33,96.42 96.41,96.42l139.06 0c3.43,0 6.22,-2.8 6.22,-6.22l0 -110.25c0,-3.42 -2.79,-6.22 -6.22,-6.22l-105.57 0c-3.99,0 -7.24,-3.25 -7.24,-7.24z"/>
  <path class="fil0" d="M4421.59 187.98c-0.98,-4.57 -0.88,-9.31 0.09,-13.88 3.29,-15.24 15.35,-24.98 30.94,-24.98l309.23 0c3.43,0 6.23,-2.8 6.23,-6.21l0 -110.74c0,-3.42 -2.8,-6.22 -6.23,-6.22l-309.23 0c-56.69,0 -110.03,35.16 -136.98,84.27 -6.52,11.89 -11.51,24.67 -14.38,37.93 -3.3,15.39 -4.95,31.17 -4.02,46.9 2.19,37.04 18.12,66.89 43.64,93.21 13.72,14.12 30.03,25.48 47.94,33.58l264.24 119.45c9.13,4.13 15.88,11.73 18.01,21.63 0.98,4.59 0.88,9.31 -0.09,13.89 -3.28,15.24 -15.35,24.98 -30.94,24.98l-309.96 0c-3.41,0 -6.22,2.8 -6.22,6.22l0 110.74c0,3.41 2.81,6.22 6.22,6.22l309.96 0c56.69,0 110.03,-35.16 136.98,-84.26 6.52,-11.89 11.51,-24.67 14.36,-37.94 3.31,-15.38 4.96,-31.17 4.04,-46.9 -2.2,-37.04 -18.12,-66.89 -43.66,-93.21 -13.7,-14.14 -30.02,-25.48 -47.94,-33.59l-264.22 -119.44c-9.15,-4.13 -15.88,-11.74 -18.01,-21.64z"/>
  <path class="fil0" d="M3230.89 500.13c-1.12,-1.11 -2.57,-1.74 -4.17,-1.74l-16.17 0c-0.62,0 -1.15,-0.07 -1.78,-0.22 -59.17,-15.06 -101.25,-68.94 -101.25,-130.05l0 -335.95c0,-3.42 -2.8,-6.22 -6.21,-6.22l-110.26 0c-3.41,0 -6.22,2.8 -6.22,6.22l0 335.95c0,116.58 79.75,219.4 192.53,248.65 1.73,0.45 3.07,1.38 4.1,2.85 1.17,1.66 3.04,2.67 5.09,2.67l17.55 0c0.35,0 0.67,0.02 1.04,0.07 12.11,1.74 24.29,2.62 36.47,2.62 13.14,0 26.28,-1 39.1,-3 124.82,-19.24 217.75,-127.62 217.75,-253.86l0 -335.95c0,-3.42 -2.72,-6.22 -6.09,-6.22l-110.24 0c-3.52,0 -6.25,2.8 -6.25,6.22l0 335.95c0,62.49 -43.9,117.19 -104.95,130.91 -9.61,2.17 -19.39,3.26 -29.32,3.26 -1.92,0 -4,-0.05 -5.93,-0.14 -1.92,-0.08 -3.37,-0.75 -4.8,-2.02z"/>
  <path class="fil0" d="M801.45 18.61c-154.7,19.11 -270.92,151.06 -270.92,306.85 0,155.8 116.21,287.73 270.92,306.85 12.7,1.57 25.49,2.36 38.29,2.36 12.8,0 25.61,-0.8 38.3,-2.36 154.7,-19.12 270.92,-151.06 270.92,-306.85 0,-155.79 -116.22,-287.74 -270.92,-306.84 -12.69,-1.57 -25.49,-2.37 -38.3,-2.37 -12.8,0 -25.59,0.79 -38.29,2.36zm71.51 123.27c88.72,15.84 153.31,93.54 153.31,183.58 0,91.01 -65.9,169.09 -155.74,183.99 -10.17,1.68 -20.47,2.54 -30.78,2.54 -10.3,0 -20.6,-0.85 -30.78,-2.54l-2.59 -0.43c-88.64,-15.9 -153.15,-93.58 -153.15,-183.56 0,-91.01 65.9,-169.09 155.74,-183.98 10.18,-1.69 20.48,-2.54 30.78,-2.54 10.31,0 20.61,0.85 30.78,2.54l2.44 0.4z"/>
  <path class="fil0" d="M1698.81 110.53c-48.66,-53.7 -117.61,-84.58 -190.15,-84.58 -141.32,0 -256.85,115.53 -256.85,256.86l0 335.94c0,3.41 2.79,6.22 6.22,6.22l110.24 0c3.43,0 6.22,-2.81 6.22,-6.22l0 -335.95c0,-73.74 60.44,-134.17 134.17,-134.17 73.74,0 134.16,60.43 134.16,134.17l0 335.95c0,3.41 2.81,6.22 6.22,6.22l110.26 0c3.43,0 6.21,-2.81 6.21,-6.22l0 -335.94c0,-73.74 60.43,-134.18 134.18,-134.18 73.74,0 134.16,60.43 134.16,134.17l0 335.95c0,3.41 2.81,6.22 6.22,6.22l110.25 0c3.41,0 6.21,-2.81 6.21,-6.22l0 -335.94c0,-141.33 -115.52,-256.86 -256.85,-256.86 -72.55,0 -141.48,30.87 -190.14,84.58 -1.43,1.56 -3.25,2.38 -5.37,2.38 -2.12,0 -3.94,-0.81 -5.37,-2.38z"/>
  <path class="fil0" d="M2532.44 18.61c-154.7,19.11 -270.92,151.06 -270.92,306.85 0,155.8 116.22,287.73 270.92,306.85 12.71,1.57 25.5,2.36 38.3,2.36 12.8,0 25.6,-0.8 38.31,-2.36 33.2,-4.1 64.63,-13.41 93.51,-27.03l-30.99 -122.84c-20.75,13.36 -44.43,22.76 -70.05,27.01 -10.15,1.68 -20.46,2.54 -30.78,2.54 -10.3,0 -20.61,-0.85 -30.77,-2.54l-2.59 -0.43c-88.66,-15.9 -153.16,-93.58 -153.16,-183.56 0,-91.01 65.9,-169.09 155.76,-183.98 10.16,-1.69 20.46,-2.54 30.77,-2.54 10.3,0 20.62,0.85 30.78,2.54l2.44 0.4c88.72,15.84 153.3,93.54 153.3,183.58 0,29.03 -6.72,56.74 -18.77,81.51 44.79,22.57 89.47,45.41 96.53,48.81 4.09,1.97 8.53,4.06 13.15,6.24 20.39,-41.36 31.78,-87.79 31.78,-136.56 0,-155.79 -116.2,-287.74 -270.91,-306.84 -12.7,-1.57 -25.51,-2.37 -38.31,-2.37 -12.8,0 -25.59,0.79 -38.3,2.36z"/>
  <path class="fil0" d="M4035.87 455.45c-20.31,20.31 -44.67,35.42 -71.2,44.52 -0.56,0.2 -1.12,0.38 -1.7,0.58 -18.54,6.17 -38.37,9.52 -58.98,9.52 -43.07,0 -83.87,-14.89 -116.26,-40.66 -24.29,-19.3 -43.87,-44.71 -56.2,-74.54 -0.09,-0.25 -0.2,-0.5 -0.27,-0.75 -8.91,-21.78 -13.81,-45.61 -13.81,-70.6 0,-24.98 4.92,-48.82 13.83,-70.61 0.06,-0.23 0.17,-0.46 0.24,-0.71 12.24,-29.62 31.65,-54.89 55.7,-74.15 0.01,-0.02 0.04,-0.04 0.06,-0.05 31.95,-25.66 72.53,-41.01 116.71,-41.01 43.26,0 84.21,15.03 116.69,41.01 24.08,19.27 43.52,44.56 55.76,74.2 0.09,0.24 0.18,0.48 0.24,0.71 1.26,3.06 2.43,6.16 3.52,9.3l-298.03 0c-6.69,19.2 -10.32,39.83 -10.32,61.32 0,21.49 3.64,42.14 10.34,61.34l420.28 0c3.19,0 5.79,-2.3 6.19,-5.44l2.16 -17.59c1.59,-12.69 2.36,-25.49 2.36,-38.28 0,-12.8 -0.78,-25.59 -2.36,-38.29 -19.13,-154.71 -151.06,-270.93 -306.85,-270.93 -155.79,0 -287.74,116.22 -306.87,270.93 -1.57,12.7 -2.34,25.49 -2.34,38.29 0,12.79 0.77,25.59 2.34,38.28 19.13,154.7 151.07,270.92 306.87,270.92 82.25,0 160.49,-32.4 218.63,-90.56l14.18 -14.17c2.41,-2.42 2.41,-6.37 0,-8.79l-77.93 -77.96c-2.4,-2.41 -6.38,-2.41 -8.78,0l-14.2 14.18z"/>
  <path class="fil0" d="M198.22 228.81l0 -202.89 -122.67 0 0 592.83c0,3.41 2.79,6.22 6.22,6.22l110.25 0c3.41,0 6.2,-2.81 6.2,-6.22l0 -189.26c0,-3.12 1.89,-5.77 4.82,-6.81 2.95,-1.05 6.07,-0.18 8.04,2.25l154.83 190.33 5.74 7.34c1.26,1.61 2.85,2.38 4.9,2.38l143.52 0c2.5,0 4.5,-1.24 5.59,-3.5 1.09,-2.25 0.85,-4.58 -0.69,-6.56l-223.17 -285c-2.1,-2.65 -2.1,-6.27 0,-8.92l223.17 -285c1.54,-1.97 1.78,-4.31 0.69,-6.56 -1.09,-2.25 -3.09,-3.49 -5.59,-3.49l-143.52 0c-2.05,0 -3.64,0.77 -4.9,2.38l-160.49 204.95c-1.93,2.47 -5.08,3.4 -8.06,2.37 -2.96,-1.02 -4.89,-3.7 -4.89,-6.84z"/>
  <path class="fil1" d="M2356.26 643.2c-5.28,-3.79 -10.42,-7.73 -15.47,-11.8 -2.65,-2.13 -6.6,-1.71 -8.75,0.94l-69.14 85.87c-2.13,2.66 -1.72,6.61 0.95,8.74 70.94,57.17 156.02,93.14 246.44,104.3 20.04,2.48 40.25,3.73 60.44,3.73 20.2,0 40.39,-1.25 60.44,-3.73 90.42,-11.16 175.52,-47.14 246.46,-104.3 2.65,-2.13 3.07,-6.09 0.93,-8.74l-69.13 -85.87c-2.14,-2.65 -6.1,-3.08 -8.74,-0.94 -5.05,4.07 -10.21,8.01 -15.46,11.8 -49.96,36.05 -107.96,58.76 -169.1,66.31 -15.05,1.85 -30.22,2.8 -45.39,2.8 -15.16,0 -30.33,-0.94 -45.39,-2.8 -61.13,-7.55 -119.13,-30.26 -169.09,-66.31z"/>
  <path class="fil1" d="M2886.09 491.09c-16.11,-10.26 -40.94,-21.35 -58.61,-29.85 -12.94,-6.22 -166.65,-85.2 -174.24,-86.18l63.63 252.2c8.43,-13.04 18.09,-38.94 25.45,-55.26 4.06,-9 23.12,-52.35 25.59,-54.43 5.13,-4.3 97.8,-19.26 118.17,-26.49z"/>
 </g>
</svg>
